<svg width="32" height="32" viewBox="0 0 32 32" fill="none" xmlns="http://www.w3.org/2000/svg">
  <!-- 白色背景 -->
  <rect width="32" height="32" fill="white"/>
  
  <!-- 中央太極圖 -->
  <!-- 紅色半圓（上方） -->
  <path d="M 16 8 A 8 8 0 0 1 16 24 A 4 4 0 0 0 16 16 A 4 4 0 0 1 16 8 Z" fill="#C60C30"/>
  <!-- 藍色半圓（下方） -->
  <path d="M 16 8 A 8 8 0 0 0 16 24 A 4 4 0 0 1 16 16 A 4 4 0 0 0 16 8 Z" fill="#003478"/>
  <!-- 白色小圓（上方） -->
  <circle cx="16" cy="12" r="3" fill="white"/>
  <!-- 白色小圓（下方） -->
  <circle cx="16" cy="20" r="3" fill="white"/>
  <!-- 藍色小點（上方） -->
  <circle cx="16" cy="12" r="1.5" fill="#003478"/>
  <!-- 紅色小點（下方） -->
  <circle cx="16" cy="20" r="1.5" fill="#C60C30"/>
  
  <!-- 四個角落的八卦符號（簡化版） -->
  <!-- 左上（乾） -->
  <rect x="3" y="3" width="4" height="0.8" fill="#003478"/>
  <rect x="3" y="5" width="3" height="0.8" fill="#003478"/>
  <rect x="3" y="7" width="4" height="0.8" fill="#003478"/>
  
  <!-- 右上（坤） -->
  <rect x="25" y="3" width="4" height="0.8" fill="#C60C30"/>
  <rect x="26" y="5" width="3" height="0.8" fill="#C60C30"/>
  <rect x="25" y="7" width="4" height="0.8" fill="#C60C30"/>
  
  <!-- 左下（離） -->
  <rect x="3" y="24" width="4" height="0.8" fill="#C60C30"/>
  <rect x="4" y="26" width="3" height="0.8" fill="#C60C30"/>
  <rect x="3" y="28" width="4" height="0.8" fill="#C60C30"/>
  
  <!-- 右下（坎） -->
  <rect x="25" y="24" width="4" height="0.8" fill="#003478"/>
  <rect x="26" y="26" width="3" height="0.8" fill="#003478"/>
  <rect x="25" y="28" width="4" height="0.8" fill="#003478"/>
</svg>
